<svg width="11" height="11" viewBox="0 0 11 11" fill="none" xmlns="http://www.w3.org/2000/svg">
<path d="M6.41145 3.50177H3.80127V4.02328H6.41145V3.50177Z" fill="#2FD09A"/>
<path d="M4.58354 4.56128H3.80127V5.08279H4.58354V4.56128Z" fill="#2FD09A"/>
<path d="M5.82417 4.56128H5.04175V5.08279H5.82417V4.56128Z" fill="#2FD09A"/>
<path d="M1.24334 10.3737H7.12832C7.74993 10.3737 8.25578 9.89103 8.25578 9.29773V8.77539H8.99118C9.6126 8.77539 10.1182 8.29277 10.1182 7.69928V2.71889C10.1182 2.62816 10.0778 2.54723 10.0143 2.48887L10.0153 2.48793L7.5476 0.22917C7.51979 0.203758 7.48804 0.185312 7.45432 0.17063C7.44465 0.166489 7.43459 0.164418 7.42473 0.16103C7.39594 0.151431 7.36695 0.145784 7.33658 0.14409C7.32928 0.143713 7.32317 0.140137 7.31568 0.140137H3.1058C2.92062 0.140137 2.77074 0.28338 2.77074 0.460128V1.73859H1.24334C1.05836 1.73859 0.908081 1.88183 0.908081 2.05858V10.0537C0.908081 10.2304 1.05836 10.3737 1.24334 10.3737ZM7.65054 1.21041L8.94898 2.3989H8.10728C7.85544 2.3989 7.65054 2.20333 7.65054 1.96296V1.21041ZM3.44126 0.78012H6.98002V1.96296C6.98002 2.55626 7.48567 3.03888 8.10748 3.03888H9.44773V7.69928C9.44773 7.93965 9.24283 8.13522 8.99118 8.13522H3.44126V0.78012ZM1.5786 2.37857H2.77074V8.45521C2.77074 8.63196 2.92062 8.77539 3.1058 8.77539H7.58507V9.29773C7.58507 9.53791 7.38016 9.73367 7.12832 9.73367H1.5786V2.37857Z" fill="#2FD09A"/>
</svg>
