<svg id="Layer_3" data-name="Layer 3" xmlns="http://www.w3.org/2000/svg" viewBox="0 0 1989.29 1306.69"><defs><style>.cls-1{fill:#7cbd9b;}</style></defs><title>Email</title><path class="cls-1" d="M1848,346.66H151.23A146.27,146.27,0,0,0,5,492.93V1507.07a146.27,146.27,0,0,0,146.28,146.27H1848a146.27,146.27,0,0,0,146.27-146.27V492.93A146.27,146.27,0,0,0,1848,346.66Zm31.36,111.12L1021.17,934.53a33.81,33.81,0,0,1-16.4,4.26h-4.33a33.78,33.78,0,0,1-16.4-4.26L125.87,457.78a33.77,33.77,0,0,1,32.8-59l843.94,468.87,843.92-468.87a33.77,33.77,0,0,1,32.8,59Z" transform="translate(-4.95 -346.66)"/></svg>