<svg id="Layer_2" data-name="Layer 2" xmlns="http://www.w3.org/2000/svg" viewBox="0 0 2000 1950.77"><defs><style>.cls-1{fill:#23d3a3;}</style></defs><title>Github</title><path class="cls-1" d="M0,942.47c5-36.54,9.36-73.19,15.22-109.6,23-143,77.8-273.22,159.55-392.2,123.69-180,289.54-306,494.81-379.24C808.9,11.75,953-2.27,1100.17,11.52,1283.52,28.71,1448.5,93.45,1595.75,203c179.16,133.26,300.3,307.93,364.11,521.72,41,137.26,49.79,277.6,30.06,419.17-38.92,279.3-177.58,500.2-399.74,670.08-80.58,61.61-171.29,105.68-267.27,138.49-44,15-73.88-6.08-74.07-52.5-.35-86.56.11-173.12-.21-259.68-.15-43.1-2.55-86.34-21.34-125.94-11-23.14-26.27-44.24-39.73-66.44,36.46-6.78,76.13-11.85,114.56-21.76,101.85-26.29,193.08-71.45,254.88-160.83,45-65,65.79-139.55,75-217.21,6.94-58.89,9-118-2.35-176.83q-18.9-98-84.54-173.09c-7.91-9-9.25-16.5-5.36-27.64,28.75-82.25,17.64-162.73-12.83-241.84-1.87-4.87-10.11-9.47-15.94-10.29-34.74-4.91-67.63,4.9-98.13,19.26-50.43,23.76-99.15,51.13-149.12,75.92-8.92,4.43-21.24,7.22-30.52,4.9Q999.37,460,765.9,518.63c-9.22,2.31-22.22-.27-30.36-5.44-63.5-40.4-130.47-72.66-203.45-91.86-1.25-.33-2.48-.82-3.75-1.09-46.64-9.85-54.93-4.59-68.32,41.23-20.77,71-24.5,141.81.36,212.85,2,5.73.17,15.68-3.81,20.21-83.9,95.37-102.9,208.22-91.45,330.08,6.7,71.31,23.55,139.54,55.53,203.75C465.71,1318.81,541.88,1374,634.1,1406c54.79,19,113.39,26.89,170.29,39.75,3,.67,6,1,6.58,1.09-14.56,26.47-29.57,52.6-43.3,79.37-4.65,9.07-8.15,19.7-8.56,29.76-.84,21.08-11.9,30.6-31,35.77-63.31,17.13-126.11,28.2-186.67-9-31.81-19.51-55.47-46.83-74.2-78.71-28.8-49-69.19-85-123.84-101.14-20.23-6-43.29-4.35-64.88-3.09-13.17.78-17.45,11.5-8.55,22.61s17.66,23.72,29.45,30.56c53.65,31.09,83.77,80.38,107.86,134.56,13.76,31,26.69,61.85,52.86,85.36,42,37.72,92.69,52,147,54.42,47.07,2.12,94.31.44,144.54.44,0,28.3-.13,61.34,0,94.37.13,25.38,1,50.76.9,76.14-.12,46.81-31,69.46-75.24,54.37C529.59,1902.3,399.54,1823,290.53,1711c-105.7-108.55-186.47-233.21-236.29-377.08C26,1252.35,9.6,1168.45,3.06,1082.49c-.58-7.65-2-15.24-3.06-22.85Z" transform="translate(0 -6.51)"/></svg>