<svg id="Layer_1" data-name="Layer 1" xmlns="http://www.w3.org/2000/svg" viewBox="0 0 1999.6 1999.6"><defs><style>.cls-1{fill:#7cbd9b;}</style></defs><title>Home</title><path class="cls-1" d="M1000.26,0C447.91,0,.3,447.62.3,1000c0,552,447.61,999.63,1000,999.63,552,0,999.64-447.62,999.64-999.63C1999.9,447.62,1552.28,0,1000.26,0Zm-494,381.06H648c0,38.36.33,77.38,0,116.08-.33,2.66-2.67,6.33-5,8.33C598.68,544.83,554,583.86,506.28,625.88Zm1001.31,1211.1v28.36H1170.37V1285H833.83v335.55H497.61c-.33-7.68-1-15-1-22,0-203.13-.33-405.92.33-609,0-9.67,4-22,10.68-28C590,888.38,673.39,816,756.44,743.63Q874,641.06,991.93,538.5c3-2.67,6.33-5,11-8.68,38,31.36,76.05,62.38,113.74,94.06,122.08,101.4,244.16,203.47,366.57,304.53,17.34,14.34,25.35,29,25,52.7C1507.25,1184.91,1507.59,1388.37,1507.59,1592.16Zm95.72-638.73c-201.46-176.45-401.58-352.56-602.71-529C801.8,600.53,603.35,776,401.88,954.43c-24.68-26.69-48.69-53-74.38-81.06C553.65,671.91,777.12,472.79,1002.27,272Q1339,571.69,1676.69,872C1651.68,899.39,1628.33,925.41,1603.31,953.43Z" transform="translate(-0.3)"/></svg>