<?xml version="1.0" encoding="utf-8"?>
<!-- Generator: Adobe Illustrator 24.0.1, SVG Export Plug-In . SVG Version: 6.00 Build 0)  -->
<svg version="1.1" id="Layer_1" xmlns="http://www.w3.org/2000/svg" xmlns:xlink="http://www.w3.org/1999/xlink" x="0px" y="0px"
	 viewBox="0 0 500 500" style="enable-background:new 0 0 500 500;" xml:space="preserve">
<style type="text/css">
	.st0{fill:#1D1D1D;}
</style>
<path class="st0" d="M486.16,263.62c-34.72,26.47-69.41,52.99-104.1,79.52c-43.98,33.61-87.97,67.23-131.96,100.83
	c-3.69,2.84-7.37,5.68-11.06,8.52c-5.01,3.84-10.47,4.67-16.12,1.82c-5.66-2.86-8.1-7.73-8.09-14.07
	c0.05-37.3,0.03-74.58,0.03-111.88v-4.64H30v-146.8h184.87v-4.49c0-37.07,0.05-74.12-0.05-111.17c-0.03-6.73,2.18-11.98,8.3-15.03
	c6.17-3.08,11.68-1.36,16.95,2.67c55.31,42.37,110.65,84.7,166.01,127.03c26.73,20.43,53.48,40.82,80.22,61.24
	C496.65,245.08,496.54,255.71,486.16,263.62z"/>
</svg>
