<svg id="Layer_4" data-name="Layer 4" xmlns="http://www.w3.org/2000/svg" viewBox="0 0 1999.88 2000"><defs><style>.cls-1{fill:#23d3a3;}</style></defs><title>Whatsapp</title><path class="cls-1" d="M1999.47,948.19C1986,416.49,1555.57,0,1019.63,0,493.32,0,63.22,408.46,40.46,929.85c-.69,14.26-1.13,28.57-1.13,43A965.17,965.17,0,0,0,173,1463.44a14.12,14.12,0,0,1,1.24,11.71L.55,1988.12a9,9,0,0,0,11.24,11.44L546,1829.67a14.13,14.13,0,0,1,10.92,1,988.62,988.62,0,0,0,462.76,115.19c540.54,0,980.31-436.51,980.31-973.06C1999.94,965.73,1999.47,948.19,1999.47,948.19ZM357.92,1411.05C270,1281,223.74,1130.17,223.74,972.81c0-25.17,1.25-50.22,3.8-76.56C267.09,489.6,607.6,183,1019.63,183c413,0,761.51,319.82,793.4,728.05,1.83,24,2.68,43.64,2.68,61.71,0,435.53-357.13,789.86-796.08,789.86a795.73,795.73,0,0,1-336.26-74.17c-29.24-13.6-84.71-46.75-102.23-57.33a14.1,14.1,0,0,0-11.7-1.31l-268.85,85.52a7.88,7.88,0,0,1-9.86-10l86.87-256a14.38,14.38,0,0,0-1.93-13C370.39,1428.79,361.7,1416.64,357.92,1411.05Z" transform="translate(-0.06)"/><path class="cls-1" d="M1485.73,1189.27c-6.13-9.76-48.41-30.09-48.41-30.09-16.68-8.28-139.46-68.42-162.53-76.69-19.76-7.09-42.13-15.13-62.17,14.71-15.27,22.57-59.87,74.65-74.38,91.07-10.2,11.58-19.52,15.37-42.11,4.08-3.78-1.84-113.13-48.59-188.56-115.3-66.9-59.08-113.26-132.11-130.08-160.8-10.36-17.49-3.61-25.62,9.17-38.42,7.87-7.69,42.49-49.59,45.25-53.62,5.51-8.4,15.36-28.56,15.36-28.56,10-19.71,3.77-36.88-1.81-48.19-4-7.79-66.94-159.4-72.94-173.66-17.94-42.83-37.09-45.06-55.41-44-8.91.64-92.22,1.29-118.78,30.09l-4.66,4.94c-26,27.56-80.27,84.89-80.27,195.84,0,25.52,4.1,52.36,12.51,82.1,15.48,53.47,45.74,112,85.75,165.5.88,1.13,61.82,85.77,92.31,120.87,96.39,111,205.28,193,315.13,235.91,140.37,54.85,200.28,67.38,234.3,67.38,14.89,0,46.21-7.56,53-8.21,42.87-3.84,144.82-56.94,166.21-116.6C1492.89,1251.23,1493.29,1201.93,1485.73,1189.27Z" transform="translate(-0.06)"/></svg>