<svg width="18" height="18" viewBox="0 0 18 18" fill="none" xmlns="http://www.w3.org/2000/svg">
<g clip-path="url(#clip0)">
<path d="M18 11.6153V14.0415L8.33905 18V15.8718L10.1778 15.1482L16.0768 12.8308L10.1778 10.5087V8.42773L18 11.6153Z" fill="#36A680"/>
<path d="M3.8614 4.40778L1.92325 5.16921L3.8614 5.93064V6.20021H4.54224L7.76256 7.46768V9.54861L0 6.38466V3.95849L9.66096 0V2.12822L4.46273 4.17131L3.8614 4.40778Z" fill="#36A680"/>
<path d="M3.86145 5.93063L4.54229 6.20021H3.86145V5.93063Z" fill="#36A680"/>
<path d="M10.1778 8.42774V10.5087L9.66091 10.3053L8.48311 9.84183L8.33899 9.78508L7.76251 9.54861V7.46768L8.33899 7.69469L9.51182 8.15817L9.66091 8.21492L10.1778 8.42774Z" fill="#36A680"/>
<path d="M14.074 4.1713V6.2002H10.1778V15.1482L8.33909 15.8718V16.0893H7.76261V6.2002H3.86145V4.40776L4.46278 4.1713H14.074Z" fill="#2FD09A"/>
<path d="M796.5 15.7013C547.5 -6.7837 201 -8.18899 0 31.8625V1258H1667V1.64822C1534.6 46.6183 1031.5 34.4389 796.5 15.7013Z" fill="#F2F2F2"/>
</g>
<defs>
<clipPath id="clip0">
<rect width="18" height="18" fill="white"/>
</clipPath>
</defs>
</svg>
