<svg width="16" height="16" viewBox="0 0 16 16" fill="none" xmlns="http://www.w3.org/2000/svg">
<path d="M2.19073 13.9076C2.22451 13.7786 2.2529 13.6704 2.28284 13.5622C2.38952 13.1677 2.49544 12.7724 2.60366 12.3779C2.71802 11.9619 2.83391 11.5467 2.95057 11.1307C2.96899 11.0647 2.96746 11.0079 2.93215 10.9442C2.63589 10.4192 2.44785 9.85662 2.32965 9.26641C2.19918 8.61402 2.21299 7.9624 2.31354 7.31078C2.41101 6.68219 2.63206 6.09427 2.94136 5.54012C3.41645 4.68818 4.07575 4.01124 4.90236 3.49854C5.20553 3.3105 5.52865 3.16006 5.86175 3.03266C6.43739 2.81315 7.03451 2.71337 7.64929 2.68651C7.97395 2.67269 8.29631 2.69035 8.61329 2.74407C8.93871 2.79933 9.26261 2.87839 9.57729 2.9774C10.2888 3.20074 10.9166 3.57759 11.473 4.07187C11.8276 4.38655 12.1454 4.73424 12.4086 5.13027C12.6665 5.51787 12.8883 5.92618 13.038 6.36827C13.2222 6.91244 13.3404 7.47042 13.3581 8.04836C13.3696 8.41753 13.3366 8.7821 13.2836 9.14667C13.1861 9.81364 12.949 10.43 12.6182 11.014C12.3334 11.516 11.9765 11.9619 11.5513 12.3503C11.0617 12.797 10.5083 13.1485 9.89427 13.4018C9.2603 13.6627 8.60024 13.7917 7.91562 13.8086C7.57024 13.817 7.22562 13.8047 6.88792 13.7356C6.5717 13.6712 6.25702 13.5906 5.95078 13.4885C5.6906 13.4018 5.44499 13.2721 5.19095 13.1646C5.15487 13.1493 5.10652 13.1454 5.06891 13.1546C4.58845 13.279 4.10875 13.4071 3.62829 13.533C3.2737 13.6259 2.91911 13.7157 2.56451 13.8078C2.46704 13.8331 2.3711 13.8607 2.27439 13.8876C2.25367 13.8922 2.23218 13.8968 2.19073 13.9076ZM3.52698 12.5798C3.55768 12.5736 3.56996 12.5721 3.58224 12.569C3.76414 12.5199 3.94527 12.4692 4.12717 12.4224C4.48407 12.3296 4.84173 12.2413 5.19785 12.1461C5.25542 12.1308 5.29686 12.1407 5.34522 12.1668C5.5417 12.272 5.73665 12.3817 5.9385 12.4746C6.2954 12.6389 6.67225 12.7486 7.05984 12.81C7.73372 12.9167 8.40069 12.8745 9.05845 12.6911C9.63408 12.5306 10.1529 12.2589 10.6249 11.8944C11.2459 11.4147 11.7087 10.8114 12.0295 10.0976C12.2406 9.6279 12.3534 9.13439 12.3987 8.62246C12.4785 7.71833 12.2928 6.86869 11.8737 6.07048C11.5544 5.46107 11.1092 4.95605 10.5582 4.54159C10.1299 4.21923 9.65941 3.98514 9.14901 3.82857C8.66087 3.6789 8.16046 3.60599 7.64852 3.63055C7.15194 3.65358 6.66611 3.73493 6.19869 3.91146C5.72821 4.08952 5.29533 4.33436 4.90313 4.64981C4.29296 5.14025 3.83859 5.75196 3.52928 6.47035C3.31898 6.95926 3.21537 7.47349 3.18466 8.00461C3.15089 8.59176 3.23225 9.16049 3.41799 9.71694C3.54847 10.1076 3.72806 10.4729 3.94988 10.8183C3.96983 10.8498 3.98288 10.9004 3.97367 10.935C3.8501 11.3955 3.72192 11.8545 3.59528 12.3142C3.57303 12.3979 3.5523 12.4815 3.52698 12.5798Z" fill="#2FD09A"/>
<path d="M9.27948 10.912C8.92489 10.9327 8.61328 10.8137 8.30167 10.7032C7.83732 10.5382 7.40061 10.3164 7.01455 10.0109C6.75359 9.80444 6.50799 9.57572 6.27006 9.34239C5.91393 8.99241 5.62381 8.58793 5.35288 8.1704C5.19784 7.9317 5.07734 7.67228 5.01824 7.39291C4.887 6.77199 5.03743 6.23396 5.51176 5.79878C5.61307 5.70591 5.73664 5.66984 5.87249 5.67291C5.95308 5.67444 6.0329 5.68212 6.11349 5.67982C6.23399 5.67675 6.31764 5.73201 6.36523 5.83716C6.43738 5.9945 6.50261 6.15491 6.57016 6.31378C6.65612 6.51717 6.73594 6.72287 6.82958 6.92242C6.90249 7.07823 6.86718 7.21254 6.77355 7.33765C6.67991 7.46198 6.57706 7.57865 6.47575 7.69684C6.39363 7.79202 6.38365 7.85418 6.44812 7.9624C6.73517 8.4421 7.09053 8.86039 7.55104 9.18275C7.81122 9.36465 8.09137 9.50971 8.38532 9.62868C8.48664 9.66935 8.56799 9.64786 8.634 9.56728C8.77752 9.39305 8.92028 9.21806 9.06074 9.04076C9.16051 8.91489 9.21731 8.88803 9.36467 8.9548C9.68933 9.10063 10.0094 9.25566 10.3317 9.40763C10.3931 9.4368 10.4522 9.46903 10.5136 9.49897C10.5889 9.53581 10.6234 9.59491 10.6226 9.67933C10.6188 10.093 10.4968 10.4407 10.1199 10.6687C9.85358 10.8283 9.57804 10.9319 9.27948 10.912Z" fill="#2FD09A"/>
</svg>
